PathFileType	4	(X/Y/Z)	Static 1_gm.trc
DataRate	CameraRate	NumFrames	NumMarkers	Units	OrigDataRate	OrigDataStartFrame	OrigNumFrames
150	150	4	82	mm	150	397	529
Frame#	Time	P1			P2			P3			ST1			ST2			ST3			LACR1			LACR2			LACR3			LUA1			LUA2			LUA3			LUA4			LLA1			LLA2			LLA3			LLA4			LH1			LH2			LH3			RACR1			RACR2			RACR3			RUA1			RUA2			RUA3			RUA4			RLA1			RLA2			RLA3			RLA4			RH1			RH2			RH3			REL			REM			RRS			RUS			RMC3			RMCP2			RMCP3			RMCP5			RAA			RAI			RTS			RPC			RAC			RGH			C7			T8			IJ			PX			RElevationplaneH2			RShoulderElevationH2			RShoulderRotationH2			RElevationplaneH1			RShoulderElevationH1			RShoulderRotationH1			RElbowFlExt			RElbowProSupination			RWristFlExt			RWristDeviation			RScapProRetraction			RScapRotation			RScapTilting			RTrunkFlExt			RTrunkLateralFl			RTrunkAxialRotation			RH2SAG_Flexion			RH2SAG_Abduction			RH2SAG_Rotation			RH2FRONT_Abduction			RH2FRONT_Flexion			RH2FRONT_Rotation			RH1SAG_Flexion			RH1SAG_Abduction			RH1SAG_Rotation			RH1FRONT_Abduction			RH1FRONT_Flexion			RH1FRONT_Rotation			REB			HWM		
		X1	Y1	Z1	X2	Y2	Z2	X3	Y3	Z3	X4	Y4	Z4	X5	Y5	Z5	X6	Y6	Z6	X7	Y7	Z7	X8	Y8	Z8	X9	Y9	Z9	X10	Y10	Z10	X11	Y11	Z11	X12	Y12	Z12	X13	Y13	Z13	X14	Y14	Z14	X15	Y15	Z15	X16	Y16	Z16	X17	Y17	Z17	X18	Y18	Z18	X19	Y19	Z19	X20	Y20	Z20	X21	Y21	Z21	X22	Y22	Z22	X23	Y23	Z23	X24	Y24	Z24	X25	Y25	Z25	X26	Y26	Z26	X27	Y27	Z27	X28	Y28	Z28	X29	Y29	Z29	X30	Y30	Z30	X31	Y31	Z31	X32	Y32	Z32	X33	Y33	Z33	X34	Y34	Z34	X35	Y35	Z35	X36	Y36	Z36	X37	Y37	Z37	X38	Y38	Z38	X39	Y39	Z39	X40	Y40	Z40	X41	Y41	Z41	X42	Y42	Z42	X43	Y43	Z43	X44	Y44	Z44	X45	Y45	Z45	X46	Y46	Z46	X47	Y47	Z47	X48	Y48	Z48	X49	Y49	Z49	X50	Y50	Z50	X51	Y51	Z51	X52	Y52	Z52	X53	Y53	Z53	X54	Y54	Z54	X55	Y55	Z55	X56	Y56	Z56	X57	Y57	Z57	X58	Y58	Z58	X59	Y59	Z59	X60	Y60	Z60	X61	Y61	Z61	X62	Y62	Z62	X63	Y63	Z63	X64	Y64	Z64	X65	Y65	Z65	X66	Y66	Z66	X67	Y67	Z67	X68	Y68	Z68	X69	Y69	Z69	X70	Y70	Z70	X71	Y71	Z71	X72	Y72	Z72	X73	Y73	Z73	X74	Y74	Z74	X75	Y75	Z75	X76	Y76	Z76	X77	Y77	Z77	X78	Y78	Z78	X79	Y79	Z79	X80	Y80	Z80	X81	Y81	Z81	X82	Y82	Z82
	
397	2.640000	349.045044	1628.180542	-746.302551	258.439423	1696.165649	-727.116272	205.566589	1593.098267	-733.908203	327.291412	1167.469116	-27.127510	349.349426	1114.258667	5.275602	329.919678	1166.296143	29.026117	274.901245	1268.234619	-213.023071	184.220856	1230.393799	-149.618042	215.342331	1171.324463	-237.924561	230.035141	1076.577637	-215.671738	248.493027	1008.697144	-216.267166	287.102020	1026.704102	-195.968231	282.486053	1102.131104	-195.770432	445.806000	737.542725	-199.719040	515.576050	747.803528	-264.369598	548.138184	823.305603	-159.285950	458.298889	772.075256	-141.904556	530.573914	703.280090	-191.292297	580.152466	701.184082	-176.410294	543.620422	726.555786	-148.184921	287.727325	1256.136230	238.378525	241.554886	1159.085083	264.120117	205.131500	1217.919556	174.017380	307.397247	1067.070435	217.546661	317.184357	1005.942261	214.316559	263.208099	989.513062	233.489319	255.247360	1057.015381	234.274338	470.536041	779.254150	154.181076	566.049805	817.379883	154.766800	537.970825	738.593689	253.853287	458.640869	730.238037	195.886383	553.651855	728.177979	128.650940	591.555847	708.129028	153.821640	543.437378	698.310547	178.236099	330.350983	853.379028	229.087387	287.898773	838.461731	185.108124	521.105957	721.637329	122.426086	521.104065	715.794373	171.789124	559.813049	708.062561	150.852875	604.014587	704.421631	122.637520	607.243591	694.828064	149.707687	580.454468	668.727356	172.435196	189.972305	1160.567261	145.300278	157.203125	1036.723877	104.837303	175.186722	1176.523560	77.916565	292.522064	1155.524780	131.116486	267.246643	1187.554077	169.964783	265.820496	1144.088257	156.559189	196.588120	1253.207642	2.985550	152.255646	1097.145996	16.139576	301.117676	1176.314209	2.843008	354.021698	1009.401367	1.916291	0.000000	0.000000	40.313004	0.000000	0.000000	-9.951265	0.000000	0.000000	-18.823166	0.000000	0.000000	40.313004	0.000000	0.000000	-9.951265	0.000000	0.000000	1.815660	0.000000	0.000000	49.815563	0.000000	0.000000	138.865494	0.000000	0.000000	-16.598511	0.000000	0.000000	4.812240	0.000000	0.000000	10.380961	0.000000	0.000000	15.463830	0.000000	0.000000	-11.146893	0.000000	0.000000	0.287702	0.000000	0.000000	-0.163605	0.000000	0.000000	-0.082590	0.000000	0.000000	6.475908	0.000000	0.000000	-7.571984	0.000000	0.000000	21.918831	0.000000	0.000000	-7.620039	0.000000	0.000000	6.419200	0.000000	0.000000	21.061901	0.000000	0.000000	6.475908	0.000000	0.000000	-7.571984	0.000000	0.000000	42.557655	0.000000	0.000000	-7.620039	0.000000	0.000000	6.419200	0.000000	0.000000	41.700726	309.124878	845.920410	207.097748	521.104980	718.715820	147.107605
398	2.646667	349.188202	1628.141357	-746.219116	258.629395	1696.162964	-727.062622	205.732666	1593.109131	-733.867493	327.312775	1167.472290	-27.109392	349.326630	1114.297729	5.297412	329.921021	1166.305054	28.994867	274.912354	1268.208252	-213.023270	184.251526	1230.387939	-149.633438	215.360733	1171.335938	-237.930374	230.040771	1076.585083	-215.669052	248.494110	1008.685608	-216.260468	287.092621	1026.716309	-195.985245	282.458221	1102.095825	-195.765808	445.786316	737.535828	-199.690140	515.570435	747.787354	-264.396057	548.129761	823.259155	-159.316620	458.276001	772.021484	-141.858475	530.561829	703.265320	-191.324478	580.122009	701.166870	-176.411865	543.612793	726.565430	-148.178055	287.714661	1256.137085	238.382339	241.556396	1159.050171	264.147247	205.124161	1217.912964	174.020050	307.399445	1067.033447	217.534866	317.192078	1005.936340	214.312256	263.209778	989.496765	233.496307	255.245377	1057.014771	234.263748	470.563477	779.252319	154.200546	566.074890	817.376038	154.770309	537.991699	738.600342	253.871002	458.679352	730.217407	195.840881	553.673218	728.209839	128.650116	591.557739	708.119568	153.846848	543.435486	698.283813	178.265411	330.349426	853.364014	229.122101	287.895599	838.437500	185.147537	521.156250	721.637939	122.425468	521.145020	715.792603	171.788223	559.819946	708.063477	150.867981	604.027100	704.429382	122.660515	607.247742	694.818726	149.725647	580.447449	668.710510	172.431290	189.972198	1160.547363	145.311310	157.219574	1036.700073	104.846794	175.183670	1176.502686	77.928009	292.522491	1155.519165	131.126312	267.243103	1187.544556	169.975372	265.822784	1144.078613	156.569138	196.622589	1253.271240	2.905513	152.232956	1097.228271	16.087580	301.126495	1176.342896	2.825005	353.975098	1009.412109	1.966556	0.000000	0.000000	40.459839	0.000000	0.000000	-9.954679	0.000000	0.000000	-18.946054	0.000000	0.000000	40.459839	0.000000	0.000000	-9.954679	0.000000	0.000000	1.690712	0.000000	0.000000	49.830292	0.000000	0.000000	138.857681	0.000000	0.000000	-16.579704	0.000000	0.000000	4.823214	0.000000	0.000000	10.410523	0.000000	0.000000	15.475548	0.000000	0.000000	-11.114733	0.000000	0.000000	0.271259	0.000000	0.000000	-0.182640	0.000000	0.000000	-0.104541	0.000000	0.000000	6.497534	0.000000	0.000000	-7.557978	0.000000	0.000000	21.943415	0.000000	0.000000	-7.606269	0.000000	0.000000	6.440845	0.000000	0.000000	21.085178	0.000000	0.000000	6.497534	0.000000	0.000000	-7.557978	0.000000	0.000000	42.580181	0.000000	0.000000	-7.606269	0.000000	0.000000	6.440845	0.000000	0.000000	41.721947	309.122498	845.900757	207.134827	521.150635	718.715271	147.106842
399	2.653333	349.335968	1628.070923	-746.134644	258.789917	1696.150024	-726.992493	205.858795	1593.097168	-733.786194	327.302826	1167.472412	-27.075535	349.339813	1114.227417	5.289984	329.927826	1166.298706	28.997339	274.907623	1268.233032	-213.028351	184.205032	1230.369385	-149.628220	215.354691	1171.339233	-237.949234	230.011246	1076.551514	-215.661819	248.508545	1008.669128	-216.270187	287.116425	1026.716187	-195.987915	282.460388	1102.085815	-195.768265	445.798096	737.528687	-199.705948	515.559692	747.759888	-264.368439	548.125366	823.247620	-159.285324	458.285248	771.993103	-141.858673	530.539795	703.257446	-191.294418	580.106140	701.137329	-176.388489	543.629333	726.556213	-148.193268	287.722687	1256.100220	238.390335	241.563904	1159.062622	264.123505	205.130814	1217.911743	174.021515	307.398712	1067.040161	217.545288	317.220612	1005.930725	214.306030	263.204010	989.455322	233.494568	255.252884	1057.027954	234.274567	470.567627	779.219543	154.235687	566.068665	817.330261	154.747009	537.991638	738.600342	253.871002	458.679291	730.208313	195.865662	553.678467	728.204163	128.680710	591.590515	708.102844	153.843872	543.441711	698.269226	178.282028	330.370667	853.359802	229.085541	287.917816	838.439819	185.107773	521.132629	721.592651	122.445770	521.132324	715.763062	171.810379	559.833008	708.052734	150.882629	604.029358	704.418701	122.658279	607.257507	694.798157	149.718979	580.459656	668.687988	172.425217	189.969254	1160.558105	145.301529	157.195694	1036.721313	104.821808	175.181396	1176.524536	77.920715	292.518341	1155.515381	131.112976	267.245178	1187.539551	169.966919	265.817505	1144.075684	156.555069	196.647720	1253.274414	2.998503	152.230850	1097.236938	16.154406	301.135620	1176.324341	2.855629	353.949219	1009.382935	1.929920	0.000000	0.000000	40.459816	0.000000	0.000000	-9.974512	0.000000	0.000000	-18.977470	0.000000	0.000000	40.459816	0.000000	0.000000	-9.974512	0.000000	0.000000	1.666673	0.000000	0.000000	49.807419	0.000000	0.000000	138.874664	0.000000	0.000000	-16.570560	0.000000	0.000000	4.792953	0.000000	0.000000	10.389853	0.000000	0.000000	15.466271	0.000000	0.000000	-11.114739	0.000000	0.000000	0.287174	0.000000	0.000000	-0.194644	0.000000	0.000000	-0.082176	0.000000	0.000000	6.510629	0.000000	0.000000	-7.572974	0.000000	0.000000	21.913702	0.000000	0.000000	-7.621554	0.000000	0.000000	6.453599	0.000000	0.000000	21.052027	0.000000	0.000000	6.510629	0.000000	0.000000	-7.572974	0.000000	0.000000	42.557846	0.000000	0.000000	-7.621554	0.000000	0.000000	6.453599	0.000000	0.000000	41.696171	309.144226	845.899780	207.096649	521.132446	718.677856	147.128082
400	2.660000	349.472046	1628.019531	-746.041199	258.946686	1696.143921	-726.910950	205.999069	1593.097412	-733.739319	327.290466	1167.507446	-27.132826	349.334198	1114.200562	5.306481	329.926697	1166.301514	29.005495	274.941254	1268.237183	-213.039673	184.235626	1230.342651	-149.634293	215.381714	1171.329468	-237.943893	230.044708	1076.558716	-215.672531	248.490128	1008.679871	-216.256668	287.087860	1026.716309	-195.996323	282.458527	1102.076172	-195.729599	445.785858	737.525879	-199.730072	515.585999	747.744690	-264.366241	548.119263	823.212280	-159.261765	458.278412	771.944153	-141.843689	530.552979	703.285583	-191.310944	580.114990	701.107544	-176.393784	543.595642	726.531799	-148.155670	287.698090	1256.073730	238.414780	241.558212	1159.051270	264.125793	205.124680	1217.903809	174.009399	307.393890	1067.018799	217.536194	317.209473	1005.904358	214.324860	263.235229	989.460266	233.461273	255.220169	1057.004150	234.280457	470.562073	779.163574	154.239563	566.094971	817.300415	154.756012	537.988953	738.582947	253.862503	458.693512	730.152649	195.835281	553.708740	728.198975	128.661423	591.600830	708.046936	153.841690	543.451782	698.253601	178.279678	330.398193	853.351257	229.083984	287.960052	838.425659	185.093933	521.165955	721.553833	122.443474	521.155396	715.725586	171.808243	559.846619	708.030396	150.874283	604.039368	704.358826	122.649063	607.258850	694.731873	149.708542	580.436890	668.643738	172.411758	189.979248	1160.547363	145.288422	157.225998	1036.712402	104.786682	175.204544	1176.520508	77.906311	292.531891	1155.515869	131.121552	267.247284	1187.533081	169.973862	265.826599	1144.070679	156.556458	196.671677	1253.318726	2.961498	152.207870	1097.295776	16.130806	301.137085	1176.338135	2.838136	353.902008	1009.381165	1.937011	0.000000	0.000000	40.589195	0.000000	0.000000	-9.982620	0.000000	0.000000	-19.101982	0.000000	0.000000	40.589195	0.000000	0.000000	-9.982620	0.000000	0.000000	1.523877	0.000000	0.000000	49.800003	0.000000	0.000000	138.877335	0.000000	0.000000	-16.524199	0.000000	0.000000	4.794206	0.000000	0.000000	10.388736	0.000000	0.000000	15.474689	0.000000	0.000000	-11.089734	0.000000	0.000000	0.280607	0.000000	0.000000	-0.211355	0.000000	0.000000	-0.088106	0.000000	0.000000	6.533070	0.000000	0.000000	-7.564403	0.000000	0.000000	21.919567	0.000000	0.000000	-7.613266	0.000000	0.000000	6.475972	0.000000	0.000000	21.055870	0.000000	0.000000	6.533070	0.000000	0.000000	-7.564403	0.000000	0.000000	42.545425	0.000000	0.000000	-7.613266	0.000000	0.000000	6.475972	0.000000	0.000000	41.681728	309.179138	845.888428	207.088959	521.160645	718.639709	147.125854
